PathFileType	3	(X/Y/Z)	D:\VICON_DB\Goncalves\Pilot01\09-03-2026\bw_sq_120_02.trc
DataRate	CameraRate	NumFrames	NumMarkers	Units	OrigDataRate	OrigDataStartFrame	OrigNumFrames
200.0	200.0	8	34	mm	200.0	689	787	
Frame#	Time	LASI			RASI			LPSI			RPSI			LTHI			LTHAP			LTHAD			LKNE			LKNM			LTIB			LTIAP			LTIAD			LANK			LMED			LHEE			LTOE			LFMH			LSMH			LVMH			RTHI			RTHAP			RTHAD			RKNE			RKNM			RTIB			RTIAP			RTIAD			RANK			RMED			RHEE			RTOE			RFMH			RSMH			RVMH			
		X1	Y1	Z1	X2	Y2	Z2	X3	Y3	Z3	X4	Y4	Z4	X5	Y5	Z5	X6	Y6	Z6	X7	Y7	Z7	X8	Y8	Z8	X9	Y9	Z9	X10	Y10	Z10	X11	Y11	Z11	X12	Y12	Z12	X13	Y13	Z13	X14	Y14	Z14	X15	Y15	Z15	X16	Y16	Z16	X17	Y17	Z17	X18	Y18	Z18	X19	Y19	Z19	X20	Y20	Z20	X21	Y21	Z21	X22	Y22	Z22	X23	Y23	Z23	X24	Y24	Z24	X25	Y25	Z25	X26	Y26	Z26	X27	Y27	Z27	X28	Y28	Z28	X29	Y29	Z29	X30	Y30	Z30	X31	Y31	Z31	X32	Y32	Z32	X33	Y33	Z33	X34	Y34	Z34	
689	3.44	84.454826	898.87482	-1077.3634	95.014961	898.99103	-1341.8531				286.11603	927.83392	-1239.3286	99.137375	693.50946	-1018.6359	113.29716	767.17249	-1018.7363	151.44771	634.01019	-992.95929	207.29382	478.74481	-992.10059				262.51151	290.56451	-953.60699	190.53651	354.56454	-1006.1016	218.42398	257.78098	-967.01654	289.29456	74.322655	-946.54242				324.42801	63.009018	-1003.3357	206.74435	71.653099	-952.92108	148.81628	45.248463	-973.84845				169.81392	25.409817	-895.56927	158.05821	631.10797	-1413.9471	106.40016	753.23566	-1383.7994	91.363953	658.06622	-1382.027	212.73305	496.87006	-1409.4575				243.30231	306.52615	-1450.7941	192.04822	347.98132	-1399.7123	198.72821	267.99799	-1413.4156	280.71701	65.288414	-1452.5658				309.83054	59.189293	-1406.0494	185.81252	69.322464	-1452.3732	132.90692	49.52179	-1434.3209				156.07993	17.314938	-1504.7238
690	3.445	84.690475	898.9455	-1077.3428	95.28508	899.0069	-1341.8483				286.42145	927.91925	-1239.2897	99.302765	693.56586	-1018.6116	113.49327	767.2215	-1018.7135	151.5936	634.04315	-992.94305	207.37195	478.75873	-992.08112				262.55588	290.56473	-953.58173	190.59499	354.58548	-1006.0711	218.46313	257.78595	-967.00726	289.2959	74.314125	-946.53949				324.43536	62.99831	-1003.3277	206.74841	71.656143	-952.92773	148.81715	45.249908	-973.85931				169.81699	25.411989	-895.58038	158.27701	631.12585	-1413.9261	106.66449	753.27374	-1383.79	91.578476	658.11798	-1382.0344	212.88776	496.87192	-1409.4291				243.40137	306.52667	-1450.7753	192.14973	347.98895	-1399.698	198.80107	268.00937	-1413.4159	280.7243	65.2808	-1452.5603				309.84134	59.175144	-1406.0409	185.83357	69.320282	-1452.363	132.90982	49.523705	-1434.3171				156.08284	17.318127	-1504.7207
691	3.45	84.92585	899.01343	-1077.324	95.550301	899.02216	-1341.844				286.7171	927.98639	-1239.2631	99.473679	693.62231	-1018.582	113.69499	767.2702	-1018.6895	151.75021	634.0766	-992.92694	207.46185	478.77432	-992.06335				262.60825	290.56604	-953.55792	190.66122	354.60855	-1006.0401	218.50856	257.79306	-966.99744	289.30124	74.304993	-946.53479				324.44357	62.986641	-1003.3192	206.75278	71.658936	-952.93341	148.81833	45.250961	-973.86963				169.82083	25.41407	-895.59076	158.49484	631.14221	-1413.9022	106.92455	753.3103	-1383.7803	91.790802	658.16821	-1382.042	213.04283	496.87296	-1409.4014				243.49995	306.52692	-1450.7573	192.25412	347.99619	-1399.6825	198.87379	268.02066	-1413.4165	280.73178	65.273293	-1452.5559				309.85141	59.159924	-1406.0322	185.85483	69.318169	-1452.3539	132.91328	49.524918	-1434.3129				156.08568	17.32089	-1504.7177
692	3.455	85.161079	899.07837	-1077.3074	95.810715	899.03705	-1341.8403				287.00339	928.03693	-1239.2489	99.6493	693.67847	-1018.5488	113.90113	767.3183	-1018.6653	151.91592	634.11017	-992.91113	207.56232	478.79114	-992.04718				262.66797	290.56818	-953.53534	190.73454	354.63312	-1006.0091	218.55977	257.80219	-966.98682	289.31018	74.295227	-946.5285				324.45264	62.974117	-1003.3099	206.75745	71.661453	-952.93811	148.81987	45.251652	-973.87921				169.82536	25.416052	-895.60022	158.71014	631.1571	-1413.8767	107.17934	753.34534	-1383.7701	92	658.21661	-1382.0498	213.19701	496.87299	-1409.3755				243.597	306.52664	-1450.7407	192.3604	348.0029	-1399.6659	198.94557	268.03183	-1413.4171	280.73941	65.265762	-1452.5529				309.86115	59.14373	-1406.0237	185.87589	69.316269	-1452.3461	132.91731	49.525478	-1434.3082				156.0883	17.323221	-1504.715
693	3.46	85.396255	899.14044	-1077.2932	96.066513	899.05206	-1341.8376				287.28055	928.07281	-1239.2469	99.828926	693.73419	-1018.5131	114.1105	767.36597	-1018.6414	152.08905	634.14374	-992.89587	207.67191	478.80887	-992.03247				262.73416	290.57095	-953.51404	190.81419	354.65863	-1005.9786	218.61627	257.81314	-966.97559	289.32224	74.284958	-946.52051				324.46249	62.960938	-1003.2999	206.76236	71.663742	-952.94165	148.82169	45.252106	-973.88806				169.83052	25.417984	-895.60858	158.92134	631.1709	-1413.8511	107.42791	753.3786	-1383.7598	92.205193	658.26288	-1382.057	213.34908	496.87189	-1409.3521				243.6916	306.52548	-1450.7256	192.46748	348.00916	-1399.6487	199.01579	268.04288	-1413.4175	280.74719	65.258087	-1452.5514				309.871	59.126694	-1406.016	185.89642	69.314735	-1452.3401	132.9218	49.525471	-1434.3032				156.09062	17.325125	-1504.7123
694	3.465	85.631393	899.20001	-1077.2819	96.317909	899.06714	-1341.8358				287.54889	928.09613	-1239.2571	100.0119	693.78931	-1018.4763	114.32206	767.41327	-1018.6182	152.26788	634.17719	-992.8811	207.78917	478.82724	-992.0191				262.80582	290.57416	-953.4939	190.89931	354.68466	-1005.9488	218.67738	257.82581	-966.96362	289.33661	74.274353	-946.5108				324.47308	62.947342	-1003.2894	206.76749	71.665901	-952.94397	148.82378	45.252487	-973.8963				169.83621	25.419941	-895.61597	159.12721	631.18384	-1413.8262	107.66947	753.41028	-1383.7495	92.405708	658.30682	-1382.0629	213.49799	496.86957	-1409.3313				243.78305	306.52325	-1450.712	192.57426	348.01501	-1399.631	199.08403	268.05368	-1413.4177	280.75516	65.25016	-1452.5514				309.88113	59.108967	-1406.0099	185.91612	69.313721	-1452.3359	132.9267	49.525032	-1434.2981				156.09251	17.32663	-1504.7097
695	3.47	85.866455	899.25739	-1077.2738	96.565117	899.08246	-1341.8352				287.80862	928.10889	-1239.2793	100.19758	693.84381	-1018.4399	114.53481	767.46021	-1018.5967	152.45074	634.21082	-992.86688	207.91245	478.84607	-992.00684				262.8819	290.57779	-953.47473	190.98889	354.71078	-1005.92	218.74231	257.83994	-966.95129	289.3526	74.263725	-946.49957				324.48419	62.933601	-1003.2781	206.7728	71.66803	-952.94507	148.82617	45.252937	-973.90405				169.84233	25.42202	-895.62256	159.32663	631.19623	-1413.8035	107.9034	753.44019	-1383.7396	92.601082	658.34839	-1382.067	213.64279	496.86603	-1409.3142				243.87077	306.52002	-1450.7009	192.67963	348.02042	-1399.6139	199.14995	268.06439	-1413.4176	280.76324	65.241875	-1452.5531				309.89188	59.090691	-1406.0063	185.93469	69.313332	-1452.3339	132.93198	49.524326	-1434.2931				156.09393	17.327765	-1504.7073
696	3.475	86.101349	899.31305	-1077.2694	96.808365	899.09802	-1341.8361				288.06	928.11298	-1239.3127	100.38534	693.89746	-1018.4048	114.74795	767.50726	-1018.5773	152.63594	634.24475	-992.85333	208.04002	478.86526	-991.99548				262.96121	290.58179	-953.45654	191.08192	354.73694	-1005.893	218.81015	257.8555	-966.93878	289.36929	74.253349	-946.48718				324.49579	62.92004	-1003.2667	206.77824	71.670219	-952.94513	148.82881	45.253593	-973.91125				169.84886	25.424314	-895.6283	159.51878	631.20795	-1413.7833	108.12925	753.46857	-1383.7305	92.790993	658.38739	-1382.0684	213.7827	496.86124	-1409.3007				243.95442	306.51559	-1450.692	192.78241	348.02548	-1399.5981	199.21347	268.07492	-1413.4174	280.77133	65.23307	-1452.5566				309.90353	59.071999	-1406.0057	185.95187	69.313637	-1452.3337	132.93753	49.523506	-1434.2882				156.09492	17.328588	-1504.7053
